<?xml version="1.0" encoding="UTF-8"?> <svg xmlns="http://www.w3.org/2000/svg" width="160" height="59.885" viewBox="0 0 160 59.885"><defs><style>.a{fill:#1d2d4f}.b{fill:#1e2d4f}.c{fill:#dd3331}</style></defs><title>logo</title><path class="a" d="M10.746 20.907v6.768H5.541v-6.806L0 3.318h5.726l2.454 10.97 2.42-10.97h5.727zM31.2 10.9v9.185c0 4.983-2.417 7.92-7.14 7.92s-7.14-2.937-7.14-7.92V10.9c0-4.983 2.417-7.921 7.14-7.921S31.2 5.921 31.2 10.9zm-5.243 0c0-2.566-.521-3.273-1.9-3.273s-1.934.707-1.934 3.273v9.185c0 2.64.558 3.421 1.934 3.421 1.339 0 1.9-.781 1.9-3.421zm22.491-7.582v16.808c0 5.132-2.6 7.883-7.1 7.883-4.611 0-7.214-2.677-7.214-7.623V3.318h5.243v17.068c0 1.933.669 2.714 1.971 2.714 1.227 0 1.9-.707 1.9-2.714V3.318zm6.579 0L60.6 14.957V3.318h4.574v24.357h-3.528L55.77 15.366v12.309H51.2V3.318zm27.365 5.615L78.451 10.2c-.558-2.008-1.3-2.6-2.38-2.6-1.711 0-2.454.967-2.454 3.644v8.7c0 2.38.893 3.347 2.417 3.347a2.079 2.079 0 0 0 1.822-.967v-3.611h-1.711v-3.719h6.247v12.681h-4.239V26.6a5.4 5.4 0 0 1-3.681 1.413c-3.533 0-6.061-2.417-6.061-7.995V11.2c0-4.946 2.305-8.255 7.251-8.255 3.532.001 6.138 2.083 6.73 5.988zM10.8 35.194V59.55H5.553V35.194zm7.8 0l5.578 11.639V35.194h4.574V59.55h-3.529l-5.875-12.308V59.55h-4.574V35.194zM43.032 59.55h-5.653l-5.614-24.356h5.652l2.789 16.994L43 35.194h5.652zm14.09-24.356V59.55h-5.243V35.194zm7.808 0l5.578 11.639V35.194h4.574V59.55h-3.533l-5.875-12.308V59.55H61.1V35.194z"></path><path class="b" d="M91.292 40.846l-3.979 1.264c-.223-1.9-.818-2.6-1.859-2.6-1.3 0-1.822.93-1.822 2.938v10.335c0 1.71.483 2.64 1.785 2.64 1.041 0 1.6-.707 1.9-2.751l4.016 1.19c-.632 4.165-2.715 6.024-6.359 6.024-4.09 0-6.582-2.714-6.582-7.065V42.482c0-4.8 2.64-7.623 6.619-7.623 3.38 0 5.76 2.454 6.281 5.987z"></path><path class="a" d="M99.47 35.194V59.55h-5.243V35.194zm14.538 11.713c2.194.744 3.2 2.714 3.2 5.54 0 4.277-1.339 7.1-6.545 7.1h-7.214V35.194h6.433c4.76 0 6.619 2.751 6.619 6.581-.001 2.641-.707 4.277-2.493 5.132zm-5.466-1.707h1.558c1.264 0 1.6-.744 1.6-2.751 0-2.082-.409-2.566-1.6-2.566h-1.562zm0 9.78h1.9c1.227 0 1.6-.6 1.6-2.864 0-2.566-.372-2.9-1.6-2.9h-1.9zm16.099-19.786v19.485h5.95v4.871h-11.044V35.194zm20.259 0v4.8h-6.247V44.9h4.574v4.2h-4.574v5.726h6.433v4.724h-11.671V35.194zm15.063 5.169l-3.719 1.562c-.483-2.008-1.376-2.6-2.491-2.6-1.041 0-1.488.558-1.488 1.933 0 3.644 7.735 4.2 7.735 11.639 0 4.462-2.492 6.991-6.508 6.991a6.751 6.751 0 0 1-6.694-6.1l4.053-1.227c.483 2.231 1.6 2.938 2.6 2.938 1.19 0 1.6-.6 1.6-1.785 0-4.574-7.958-5.132-7.958-12.16 0-3.719 2.343-6.694 6.21-6.694 3.722-.001 5.619 2.118 6.66 5.503z"></path><path class="c" d="M96.827 31.576l-3.073-3.81h-4.467a2.092 2.092 0 0 1-2.09-2.089V2.089A2.092 2.092 0 0 1 89.287 0H115.6a2.091 2.091 0 0 1 2.089 2.089v23.587a2.091 2.091 0 0 1-2.089 2.089h-15.594zm-5.769-7.2h4.317l1.5 1.856 1.549-1.856h15.292a.586.586 0 0 0 .586-.586V3.862a.472.472 0 0 0-.472-.472H91.077a.489.489 0 0 0-.489.489v20.026a.47.47 0 0 0 .469.471z"></path><path class="c" d="M97.456 15.8l-4.672-7.664h3.867L99.17 12.6l2.537-4.462h3.8l-4.654 7.611v4.636h-3.4zm9.362-7.664h3.394v12.248h-3.394z"></path></svg> 